# Blender v2.92.0 OBJ File: 'rock.blend'
# www.blender.org
v 1.219738 2.262517 -0.490128
v 0.612220 8.469829 -1.044651
v -0.165986 8.929679 1.024461
v -0.017415 5.666387 1.152382
v 0.997855 -0.326594 -0.172569
v -0.121065 -0.319277 -1.193104
v -0.443227 -0.197625 -0.849564
v -0.744176 2.681615 -1.032271
v -0.007549 1.295952 1.084507
v 0.294173 2.937946 -1.417001
v -1.105978 6.732606 -0.938062
v 0.651613 9.050019 0.469598
v -0.728952 9.021199 0.993863
v 0.781039 6.462840 1.203894
v -1.360996 6.120082 0.414558
v -1.654426 6.851876 -0.263335
v 0.532647 6.274309 -1.430632
v 0.880565 8.516208 -0.848823
v -0.909776 5.894109 1.297043
v -0.903979 -0.173080 0.851800
v -0.051475 -0.012754 0.912235
v 0.567117 -0.362354 0.277441
v 0.891806 -0.270762 -1.069070
v 1.224182 -0.171466 -0.586626
v 0.551866 -0.242722 -1.300850
v -0.768236 -0.043701 -1.053305
v 1.529235 -0.117066 -0.303963
v 1.440485 2.352179 -0.230291
v -0.254533 2.526227 -1.440062
v -0.466187 2.527963 -0.929260
v -0.432773 6.080325 -0.928378
v -0.507756 5.663486 -0.611349
v -0.295175 8.725018 -1.353875
v -0.774568 8.925431 -0.868119
v 0.083445 8.563725 -1.675986
v -1.301827 2.770524 -0.231297
v 0.798015 2.165677 -1.129086
v 1.156105 6.085405 -0.481886
v 0.504590 3.074367 -1.304896
v 1.024763 5.764847 -0.446147
v 0.317296 7.780739 -1.459418
v -0.994658 9.043256 0.759295
v 0.092417 -0.213516 0.643619
v -0.255153 -0.244392 -1.361385
v -0.483188 0.768223 -0.928580
v 1.127953 -0.024645 0.861898
v 1.539311 -0.111014 0.071053
v 1.092349 3.278491 0.940657
v 0.692991 0.000453 1.314119
v 1.448426 2.226545 0.228701
v 0.884893 5.555860 1.262976
v 0.536982 5.760231 1.530851
v 0.341627 5.311143 -1.323395
v -0.396045 8.695984 -0.648731
v -0.478236 8.562840 -0.793405
v 0.579369 6.348518 1.365952
v 1.123356 8.359149 -0.716866
v 0.988652 8.878967 0.424829
v -1.248023 -0.108363 -0.390538
v -1.153790 8.860250 -0.568241
v -0.953911 0.075867 0.959762
v 0.126380 8.678320 -1.303535
v 0.612220 8.469829 -1.044651
v 0.126380 8.678320 -1.303535
v -0.994658 9.043256 0.759295
v -0.728952 9.021199 0.993863
v -0.728952 9.021199 0.993863
v 0.891806 -0.270762 -1.069070
v 0.891806 -0.270762 -1.069070
v 1.529235 -0.117066 -0.303963
v 1.529235 -0.117066 -0.303963
v 1.529235 -0.117066 -0.303963
v -0.768236 -0.043701 -1.053305
v -0.768236 -0.043701 -1.053305
v -0.744176 2.681615 -1.032271
v 1.123356 8.359149 -0.716866
v 1.123356 8.359149 -0.716866
v 1.123356 8.359149 -0.716866
v 1.156105 6.085405 -0.481886
v 1.156105 6.085405 -0.481886
v -0.165986 8.929679 1.024461
v -0.165986 8.929679 1.024461
v -0.165986 8.929679 1.024461
v -0.165986 8.929679 1.024461
v 0.880565 8.516208 -0.848823
v 0.880565 8.516208 -0.848823
v 0.880565 8.516208 -0.848823
v 0.880565 8.516208 -0.848823
v -1.153790 8.860250 -0.568241
v -1.153790 8.860250 -0.568241
v -1.654426 6.851876 -0.263335
v 0.532647 6.274309 -1.430632
v 0.532647 6.274309 -1.430632
v 1.219738 2.262517 -0.490128
v -0.255153 -0.244392 -1.361385
v -0.255153 -0.244392 -1.361385
v -0.255153 -0.244392 -1.361385
v 0.551866 -0.242722 -1.300850
v -0.443227 -0.197625 -0.849564
v -0.443227 -0.197625 -0.849564
v -0.483188 0.768223 -0.928580
v 1.539311 -0.111014 0.071053
v 1.127953 -0.024645 0.861898
v 0.692991 0.000453 1.314119
v 0.692991 0.000453 1.314119
v 0.536982 5.760231 1.530851
v 1.440485 2.352179 -0.230291
v 1.440485 2.352179 -0.230291
v -0.432773 6.080325 -0.928378
v -0.254533 2.526227 -1.440062
v 0.317296 7.780739 -1.459418
v 0.341627 5.311143 -1.323395
v 0.341627 5.311143 -1.323395
v -0.478236 8.562840 -0.793405
v -0.478236 8.562840 -0.793405
v -0.478236 8.562840 -0.793405
v -0.295175 8.725018 -1.353875
v -0.295175 8.725018 -1.353875
v -0.295175 8.725018 -1.353875
v -0.774568 8.925431 -0.868119
v -0.774568 8.925431 -0.868119
v -0.774568 8.925431 -0.868119
v -1.105978 6.732606 -0.938062
v -1.248023 -0.108363 -0.390538
v -1.248023 -0.108363 -0.390538
v -1.301827 2.770524 -0.231297
v 0.781039 6.462840 1.203894
v -0.017415 5.666387 1.152382
v 0.504590 3.074367 -1.304896
v 1.024763 5.764847 -0.446147
v -0.007549 1.295952 1.084507
v -0.051475 -0.012754 0.912235
v 1.224182 -0.171466 -0.586626
v -0.466187 2.527963 -0.929260
v -0.507756 5.663486 -0.611349
v 0.083445 8.563725 -1.675986
v 0.083445 8.563725 -1.675986
v 0.988652 8.878967 0.424829
v 0.988652 8.878967 0.424829
v -0.396045 8.695984 -0.648731
v -0.396045 8.695984 -0.648731
v -0.953911 0.075867 0.959762
v -0.903979 -0.173080 0.851800
v 0.651613 9.050019 0.469598
v 0.651613 9.050019 0.469598
v -0.909776 5.894109 1.297043
vt 0.106008 0.685612
vt 0.988457 0.680991
vt 0.916479 0.949936
vt -0.000004 0.992473
vt 0.055844 0.999775
vt 0.000000 0.951831
vt 0.095361 0.954428
vt 0.000000 0.937447
vt 0.000000 0.928053
vt 0.000000 0.000046
vt 0.000000 0.033348
vt 0.000000 0.000046
vt 0.000000 0.177198
vt 0.000000 0.000020
vt 0.921115 1.000000
vt 0.761588 1.000000
vt 0.999948 0.999989
vt 0.813454 1.000000
vt 0.000000 0.160536
vt 0.000057 0.106513
vt 0.000000 0.000023
vt 1.000009 1.000000
vt 0.999977 1.000000
vt 0.999991 0.999991
vt 0.999948 0.999989
vt 0.999632 0.999632
vt 0.999906 0.993025
vt 0.962087 0.952491
vt 0.997784 0.997784
vt 1.000006 1.000000
vt 0.999963 0.999973
vt 0.999994 1.000000
vt 0.957182 0.957182
vt 0.335769 0.335772
vt 0.939309 1.000000
vt 0.941242 1.000000
vt 1.000009 1.000000
vt 0.895090 1.000000
vt 0.053566 1.000004
vt 0.941242 1.000000
vt 0.000000 0.177198
vt 0.000000 0.951831
vt 0.000000 0.889388
vt 0.000000 0.000020
vt 0.000000 0.000031
vt 0.000000 0.000000
vt 0.128566 0.953789
vt 0.000025 0.150442
vt 0.004752 0.372167
vt 0.000000 0.000031
vt 0.000000 0.098297
vt 0.000000 0.160362
vt 0.000004 0.072284
vt 0.000000 0.065289
vt 0.808624 0.872562
vt 0.267217 0.267312
vt 0.783296 0.784057
vt 0.000000 0.098297
vt 0.000000 0.941490
vt 0.005543 0.901177
vt 0.364489 0.364489
vt 0.956393 0.994742
vt 0.940697 0.940697
vt 0.000004 0.072284
vt 0.000000 0.160362
vt 0.005543 0.901177
vt 0.942092 1.000000
vt 0.810284 0.999832
vt 0.055331 0.999990
vt 0.810284 0.999832
vt 0.808624 0.872562
vt 1.000006 1.000000
vt 0.810284 0.999832
vt 0.956939 1.000000
vt 1.000009 1.000000
vt 0.954146 1.000000
vt 0.000000 0.000050
vt 0.000000 0.889388
vt 0.000000 0.092649
vt 0.939309 1.000000
vt -0.095239 1.000000
vt 0.059354 1.000000
vt 0.352566 0.997586
vt 0.518573 0.996329
vt 0.048491 0.907178
vt 0.922684 0.968315
vt 0.000000 0.883144
vt 0.048491 0.907178
vt 0.046045 0.922849
vt 0.006821 0.859980
vt 0.193786 0.965754
vt 0.055331 0.999990
vt 0.079916 0.942998
vt 0.088177 1.000000
vt 0.079916 0.942998
vt 0.055559 1.000000
vt 0.000000 1.000000
vt 0.082732 1.000000
vt 0.000000 0.928053
vt 0.000000 0.937447
vt 0.000000 0.928053
vt 0.000000 0.000050
vt 0.999977 1.000000
vt 0.336596 0.336599
vt 0.783296 0.784057
vt 0.335769 0.335772
vt 0.962087 0.952491
vt 0.962087 0.952491
vt 0.783296 0.784057
vt 0.000057 0.106513
vt 0.007369 0.860592
vt 0.046045 0.922849
vt 0.004752 0.372167
vt 0.000000 0.065289
vt 0.000004 0.072284
vt 0.000000 0.160536
vt 0.903150 0.903150
vt 0.808624 0.872562
vt 0.889686 0.889686
vt 0.999963 0.999973
vt 0.956393 0.994742
vt 0.810284 0.999832
vt 0.000000 0.160362
vt 0.000000 0.925700
vt 0.000000 0.889388
vt 0.006608 0.547472
vt 0.007369 0.860592
vt 0.000057 0.106513
vt 0.079916 0.942998
vt 0.053566 1.000004
vt 0.000000 0.925700
vt 0.055844 0.999775
vt 0.074520 0.954428
vt 0.999906 0.993025
vt 0.999957 0.988754
vt 0.000025 0.150442
vt 0.999957 0.988754
vt 0.808624 0.872562
vt 0.940220 0.972200
vt 0.000000 0.951831
vt 0.000000 0.000023
vt 0.000000 0.000000
vt 0.000004 0.072284
vt 0.000000 0.065289
vt 0.000025 0.150442
vt 0.922684 0.968315
vt 0.000000 0.160536
vt 0.889686 0.889686
vt 0.936908 1.000000
vt 0.000000 0.092649
vt 0.000000 0.925700
vt 0.936908 1.000000
vt 0.095361 0.954428
vt 0.916479 0.949936
vt 0.999957 0.988754
vt 0.810284 0.999832
vt 0.956393 0.994742
vt 0.808624 0.872562
vt 1.003449 1.009197
vt 0.854977 0.999616
vt 0.128566 0.953789
vt 0.866732 1.000000
vt 0.116368 1.000000
vt 0.000000 0.928053
vt 0.006608 0.547472
vt 0.000025 0.150442
vt 0.000000 0.065289
vt 0.004752 0.372167
vt 0.193786 0.965754
vt 0.085841 0.997730
vn 0.6907 0.0198 -0.7228
vn 0.7927 0.0359 -0.6084
vn 0.7630 0.0240 -0.6459
vn -0.1394 -0.9717 -0.1905
vn -0.0502 -0.8227 0.5661
vn -0.3577 -0.9247 -0.1304
vn 0.7038 0.0096 -0.7103
vn 0.3448 -0.0132 -0.9386
vn 0.0735 -0.0301 -0.9968
vn 0.0154 -0.0008 -0.9999
vn 0.2516 0.0111 -0.9677
vn -0.9214 0.0067 -0.3886
vn -0.9067 -0.0190 -0.4214
vn -0.9258 0.0088 -0.3777
vn 0.2422 -0.9702 0.0071
vn 0.1237 -0.9876 -0.0968
vn 0.3098 -0.9443 0.1105
vn 0.0755 -0.9834 0.1646
vn -0.6472 -0.0932 -0.7566
vn -0.3697 0.0456 -0.9280
vn -0.5162 -0.0673 -0.8538
vn 0.7151 -0.0183 0.6988
vn 0.8186 -0.0093 0.5743
vn 0.8396 0.0549 0.5404
vn 0.9792 0.0225 0.2015
vn 0.8939 0.0378 0.4465
vn 0.9989 0.0401 -0.0249
vn 0.9989 0.0458 -0.0047
vn 0.9741 0.0352 0.2232
vn 0.6030 0.0928 0.7924
vn 0.5346 0.2241 0.8148
vn 0.4642 0.2203 0.8579
vn 0.9847 0.0070 0.1740
vn -0.4103 -0.0539 0.9103
vn -0.4713 -0.0995 0.8763
vn -0.4445 -0.0823 0.8920
vn -0.0248 -0.0698 0.9972
vn 0.0050 -0.2329 0.9725
vn -0.0319 -0.6354 0.7715
vn 0.4071 -0.0039 -0.9134
vn 0.5138 -0.0488 -0.8565
vn 0.4924 -0.0393 -0.8695
vn 0.3685 0.0190 -0.9294
vn 0.4143 -0.0331 -0.9095
vn 0.5619 0.0624 -0.8248
vn 0.2607 0.9464 -0.1906
vn 0.1180 0.9906 -0.0692
vn 0.1673 0.9821 -0.0860
vn -0.7667 0.0149 -0.6418
vn -0.7777 0.0191 -0.6283
vn -0.6586 0.1144 -0.7437
vn 0.2386 -0.0051 -0.9711
vn 0.2608 -0.0131 -0.9653
vn 0.4110 -0.0903 -0.9071
vn 0.4319 -0.0866 -0.8977
vn 0.0432 -0.1217 -0.9916
vn -0.9313 0.0618 0.3588
vn -0.9165 -0.0097 0.3998
vn -0.8546 0.1538 0.4958
vn 0.5784 0.7837 -0.2264
vn 0.4328 0.8432 -0.3189
vn 0.3883 0.8551 -0.3435
vn 0.2243 0.9712 -0.0801
vn -0.2472 0.9634 -0.1032
vn 0.0898 0.9941 -0.0598
vn 0.1626 0.0104 0.9866
vn -0.0041 0.0904 0.9959
vn 0.1389 0.0203 0.9901
vn 0.1474 0.9793 -0.1386
vn 0.2513 0.9652 -0.0726
vn -0.5542 -0.0054 0.8324
vn -0.5646 0.0066 0.8253
vn -0.5633 -0.0045 0.8262
vn 0.0568 -0.9328 0.3559
vn -0.0166 -0.8894 0.4567
vn -0.8191 -0.0270 -0.5730
vn -0.8126 0.0161 -0.5826
vn -0.8212 -0.0353 -0.5695
vn 0.6492 0.1145 -0.7519
vn 0.9149 0.0375 -0.4019
vn 0.8735 0.0292 -0.4859
vn 0.4460 -0.0127 -0.8949
vn 0.4212 -0.0393 -0.9061
vn 0.6872 0.0275 -0.7260
vn -0.8828 0.0147 0.4694
vn -0.6526 0.1104 0.7496
vn -0.0380 0.0986 0.9944
vn 0.0340 -0.9027 -0.4288
vn 0.0704 -0.9665 -0.2468
vn -0.9268 -0.0496 -0.3722
vn 0.3664 0.0352 -0.9298
vn 0.2687 -0.9230 0.2754
vn -0.5007 -0.0961 -0.8603
vn 0.7570 0.0281 -0.6528
vn 0.7596 0.0140 -0.6502
vn -0.3486 -0.0351 -0.9366
vn -0.2605 -0.0556 -0.9639
vn -0.2669 -0.0542 -0.9622
vn 0.6228 0.3666 -0.6912
vn 0.7417 0.0363 -0.6697
vn 0.6077 0.7672 -0.2051
vn 0.9899 -0.0413 0.1356
vn 0.9579 0.0997 0.2691
vn 0.4051 0.2683 0.8740
vn 0.5101 0.2564 0.8210
vn -0.9642 0.2526 0.0808
vn -0.1503 -0.9860 -0.0717
vn -0.2620 -0.9236 -0.2798
vn 0.6081 -0.0377 -0.7929
vn 0.1959 0.9739 -0.1142
vn -0.9600 -0.1391 0.2429
vn -0.9743 -0.0745 0.2125
vn -0.9260 -0.2904 0.2413
vn 0.6832 0.0318 -0.7295
vn 0.2233 -0.9747 0.0097
vn -0.6663 -0.0845 -0.7409
vn 0.5921 -0.0247 -0.8055
vn -0.9385 -0.0665 -0.3388
vn -0.9696 -0.0013 -0.2445
vn -0.9750 0.0063 -0.2222
vn -0.6284 0.1195 -0.7687
vn -0.9520 -0.0008 -0.3059
vn -0.9505 -0.0005 -0.3106
vn -0.2124 -0.0219 -0.9769
vn 0.3052 0.8997 -0.3120
vn 0.2627 0.2756 0.9247
vn -0.9993 -0.0231 0.0281
vn -0.8107 0.0172 -0.5852
vn 0.0333 0.9741 -0.2235
vn -0.3949 0.8256 -0.4029
vn -0.2575 -0.0022 -0.9662
vn 0.5390 0.2618 -0.8006
vn -0.4174 -0.9060 -0.0706
vn -0.3551 -0.0336 -0.9342
vn -0.8007 0.5922 -0.0902
vn 0.5085 0.8047 -0.3062
s 1
f 37/1/1 94/2/2 133/3/3
f 6/4/4 143/5/5 99/6/6
f 37/1/1 69/7/7 25/8/8
f 97/9/9 29/10/10 10/11/11
f 110/12/12 45/13/13 30/14/14
f 5/15/15 68/16/16 47/17/17
f 22/18/18 5/15/15 47/17/17
f 136/19/19 112/20/20 31/21/21
f 105/22/22 46/23/23 51/24/24
f 46/23/23 102/25/25 48/26/26
f 72/27/27 108/28/28 50/29/29
f 106/30/30 105/22/22 51/24/24
f 106/30/30 51/24/24 127/31/31
f 106/30/30 127/31/31 56/32/32
f 50/29/29 108/33/28 77/34/33
f 9/35/34 21/36/35 49/37/36
f 131/38/37 142/39/38 132/40/39
f 101/41/40 100/42/41 74/43/42
f 134/44/43 123/45/44 32/46/45
f 62/47/46 119/48/47 140/49/48
f 11/50/49 91/51/50 89/52/51
f 123/45/44 120/53/52 115/54/53
f 87/55/54 76/56/55 79/57/56
f 16/58/57 15/59/58 65/60/59
f 78/61/60 144/62/61 139/63/62
f 121/64/63 90/65/64 42/66/65
f 29/10/10 112/20/20 10/11/11
f 4/67/66 82/68/67 19/69/68
f 62/47/46 81/70/69 85/71/70
f 52/72/71 84/73/72 128/74/73
f 104/75/74 43/76/75 22/18/18
f 75/77/76 73/78/77 36/79/78
f 131/80/37 19/81/68 142/82/38
f 63/83/79 37/84/1 92/85/80
f 130/86/81 94/2/2 37/1/1
f 129/87/82 93/88/83 37/1/1
f 92/89/80 111/90/84 63/91/79
f 65/60/59 146/92/85 66/93/86
f 19/69/68 82/94/67 13/95/87
f 143/96/5 6/97/4 22/18/18
f 22/18/18 43/98/75 143/96/5
f 22/18/18 6/4/4 5/15/15
f 10/11/11 37/1/1 25/8/8
f 6/4/4 95/99/88 98/100/89
f 45/13/13 110/12/12 96/101/90
f 8/102/91 101/41/40 74/43/42
f 43/76/75 104/75/74 132/40/39
f 22/18/18 103/103/92 104/75/74
f 51/24/24 46/23/23 48/26/26
f 51/24/24 48/26/26 77/104/33
f 38/105/93 57/106/93 107/107/93
f 28/108/94 94/2/2 80/109/95
f 113/110/96 41/111/97 17/112/98
f 141/113/99 116/114/99 122/115/99
f 35/116/100 63/91/79 111/90/84
f 144/62/61 78/117/60 88/118/101
f 138/119/102 14/120/103 77/34/33
f 127/31/31 145/121/104 83/122/105
f 65/60/59 60/123/106 16/58/57
f 125/124/107 26/125/108 99/6/6
f 10/11/11 129/126/82 37/1/1
f 37/1/1 133/3/3 69/7/7
f 35/116/100 111/127/84 53/128/109
f 140/49/48 121/64/63 67/129/110
f 65/60/59 15/59/58 146/92/85
f 61/130/111 124/131/112 20/132/113
f 98/100/89 68/133/16 6/4/4
f 94/2/2 28/108/94 71/134/114
f 97/9/9 10/11/11 25/8/8
f 68/16/16 70/135/115 47/17/17
f 22/18/18 47/17/17 103/103/92
f 101/41/40 8/102/91 134/44/43
f 143/5/5 125/124/107 99/6/6
f 136/19/19 31/21/21 118/136/116
f 146/92/85 15/59/58 61/130/111
f 102/25/25 50/29/29 48/26/26
f 72/27/27 50/29/29 102/25/25
f 133/3/3 94/2/2 71/137/114
f 63/83/79 86/138/117 130/139/81
f 96/101/90 7/140/118 45/13/13
f 11/50/49 75/77/76 91/51/50
f 75/77/76 36/79/78 91/51/50
f 8/102/91 123/45/44 134/44/43
f 110/12/12 30/14/14 109/141/119
f 30/14/14 135/142/120 109/141/119
f 11/50/49 89/52/51 34/143/121
f 123/45/44 115/54/53 32/46/45
f 109/141/119 114/144/122 117/145/123
f 87/55/54 79/57/56 40/146/124
f 62/47/46 137/147/125 119/48/47
f 58/148/126 145/121/104 127/31/31
f 127/31/31 83/122/105 56/32/32
f 121/64/63 42/66/65 67/129/110
f 77/104/33 14/120/103 51/24/24
f 62/47/46 140/49/48 81/70/69
f 56/32/32 83/122/105 106/30/30
f 4/67/66 19/69/68 131/149/37
f 126/150/127 124/131/112 15/59/58
f 126/150/127 15/59/58 16/58/57
f 73/78/77 59/151/128 36/79/78
f 128/74/73 9/152/34 52/72/71
f 9/152/34 49/37/36 52/72/71
f 23/153/129 24/154/129 27/155/129
f 112/20/20 129/126/82 10/11/11
f 3/156/130 12/157/130 18/158/130
f 130/139/81 37/84/1 63/83/79
f 1/159/131 40/146/124 79/57/56
f 86/160/117 63/91/79 64/161/132
f 43/162/75 132/40/39 143/163/5
f 143/163/5 132/40/39 142/39/38
f 68/133/16 5/15/15 6/4/4
f 6/4/4 99/6/6 44/164/133
f 48/26/26 50/29/29 77/104/33
f 114/144/122 109/141/119 135/142/120
f 112/20/20 29/10/10 31/21/21
f 113/110/96 17/112/98 39/165/134
f 33/166/135 55/167/135 54/168/135
f 62/47/46 2/169/136 137/147/125
f 81/70/69 140/49/48 67/170/110
f 124/131/112 61/130/111 15/59/58
