# Blender v2.92.0 OBJ File: 'room.blend'
# www.blender.org
v -2.287655 2.554212 0.864909
v -2.245824 1.915843 0.827816
v -1.804601 1.909879 1.477431
v -1.846433 2.548248 1.514523
v -2.287655 2.554212 0.864909
v -2.245824 1.915843 0.827816
v -1.804601 1.909879 1.477431
v -1.846433 2.548248 1.514523
vt 0.375000 0.500000
vt 0.625000 0.250000
vt 0.375000 0.250000
vt 0.003906 0.996460
vt 0.997559 0.001098
vt 0.001135 0.000686
vt 0.625000 0.500000
vt 0.375000 0.500000
vt 0.625000 0.500000
vt 0.375000 0.250000
vt 0.625000 0.250000
vt 1.001551 1.000291
vn -0.8245 -0.0865 0.5592
vn 0.8245 0.0865 -0.5592
vn 0.0000 0.0000 1.0000
s off
f 3/1/1 1/2/1 2/3/1
f 5/4/2 7/5/2 6/6/2
f 4/7/3 7/8/3 8/9/3
f 3/1/3 6/10/3 7/8/3
f 1/2/3 8/9/3 5/11/3
f 2/3/3 5/11/3 6/10/3
f 3/1/1 4/7/1 1/2/1
f 5/4/2 8/12/2 7/5/2
f 4/7/3 3/1/3 7/8/3
f 3/1/3 2/3/3 6/10/3
f 1/2/3 4/7/3 8/9/3
f 2/3/3 1/2/3 5/11/3
